<svg xmlns="http://www.w3.org/2000/svg" version="1.1" width="100" height="100" viewBox="0 0 100 100"><rect x="0" y="0" width="100" height="100" fill="#ffffff"/><g transform="scale(4.762)"><g transform="translate(0,0)"><path fill-rule="evenodd" d="M8 0L8 4L9 4L9 5L8 5L8 7L9 7L9 5L10 5L10 7L11 7L11 5L12 5L12 7L13 7L13 2L12 2L12 1L13 1L13 0L12 0L12 1L11 1L11 2L10 2L10 1L9 1L9 0ZM9 3L9 4L10 4L10 3ZM11 3L11 4L12 4L12 3ZM0 8L0 11L1 11L1 12L0 12L0 13L2 13L2 11L3 11L3 13L7 13L7 12L5 12L5 11L4 11L4 10L6 10L6 11L7 11L7 10L8 10L8 14L9 14L9 15L8 15L8 17L9 17L9 19L8 19L8 21L9 21L9 20L10 20L10 21L13 21L13 20L14 20L14 19L13 19L13 20L11 20L11 19L12 19L12 18L14 18L14 17L15 17L15 18L16 18L16 17L17 17L17 16L18 16L18 18L21 18L21 17L20 17L20 16L18 16L18 15L19 15L19 14L20 14L20 15L21 15L21 12L20 12L20 11L21 11L21 10L20 10L20 9L21 9L21 8L17 8L17 9L18 9L18 10L16 10L16 8L15 8L15 9L14 9L14 12L13 12L13 8L12 8L12 11L11 11L11 13L9 13L9 12L10 12L10 9L9 9L9 10L8 10L8 9L7 9L7 8L4 8L4 10L3 10L3 9L2 9L2 8ZM1 9L1 10L2 10L2 9ZM6 9L6 10L7 10L7 9ZM18 10L18 11L20 11L20 10ZM16 11L16 13L17 13L17 14L19 14L19 13L20 13L20 12L18 12L18 13L17 13L17 11ZM12 12L12 13L11 13L11 14L10 14L10 16L9 16L9 17L11 17L11 18L10 18L10 19L11 19L11 18L12 18L12 16L11 16L11 14L12 14L12 15L15 15L15 16L17 16L17 15L15 15L15 14L12 14L12 13L13 13L13 12ZM14 12L14 13L15 13L15 12ZM15 19L15 20L16 20L16 19ZM20 19L20 20L18 20L18 21L21 21L21 19ZM0 0L0 7L7 7L7 0ZM1 1L1 6L6 6L6 1ZM2 2L2 5L5 5L5 2ZM14 0L14 7L21 7L21 0ZM15 1L15 6L20 6L20 1ZM16 2L16 5L19 5L19 2ZM0 14L0 21L7 21L7 14ZM1 15L1 20L6 20L6 15ZM2 16L2 19L5 19L5 16Z" fill="#000000"/></g></g></svg>