<svg xmlns="http://www.w3.org/2000/svg" version="1.1" width="100" height="100" viewBox="0 0 100 100"><rect x="0" y="0" width="100" height="100" fill="#ffffff"/><g transform="scale(2.703)"><g transform="translate(0,0)"><path fill-rule="evenodd" d="M9 0L9 1L8 1L8 2L9 2L9 3L8 3L8 4L10 4L10 7L11 7L11 4L12 4L12 5L13 5L13 6L12 6L12 9L13 9L13 8L14 8L14 9L15 9L15 10L17 10L17 11L16 11L16 13L12 13L12 11L13 11L13 10L11 10L11 12L10 12L10 13L8 13L8 14L6 14L6 13L7 13L7 12L5 12L5 8L0 8L0 9L1 9L1 10L0 10L0 11L2 11L2 10L3 10L3 9L4 9L4 12L5 12L5 14L4 14L4 13L3 13L3 12L0 12L0 15L1 15L1 17L0 17L0 18L3 18L3 19L4 19L4 23L3 23L3 24L1 24L1 23L2 23L2 22L3 22L3 20L0 20L0 21L2 21L2 22L0 22L0 29L1 29L1 26L6 26L6 27L5 27L5 28L6 28L6 29L7 29L7 28L6 28L6 27L7 27L7 26L6 26L6 25L8 25L8 26L9 26L9 27L8 27L8 31L9 31L9 32L8 32L8 37L10 37L10 36L11 36L11 37L12 37L12 35L13 35L13 34L11 34L11 35L10 35L10 34L9 34L9 33L11 33L11 32L10 32L10 30L11 30L11 29L12 29L12 30L13 30L13 31L12 31L12 33L13 33L13 32L14 32L14 33L17 33L17 34L18 34L18 36L15 36L15 35L16 35L16 34L15 34L15 35L14 35L14 36L15 36L15 37L19 37L19 36L20 36L20 35L21 35L21 36L22 36L22 37L26 37L26 36L23 36L23 34L24 34L24 33L26 33L26 34L25 34L25 35L26 35L26 34L27 34L27 33L29 33L29 34L28 34L28 35L27 35L27 36L29 36L29 37L30 37L30 35L29 35L29 34L31 34L31 37L32 37L32 36L33 36L33 35L34 35L34 33L35 33L35 35L36 35L36 36L34 36L34 37L37 37L37 30L34 30L34 29L35 29L35 28L34 28L34 29L33 29L33 28L32 28L32 25L34 25L34 27L36 27L36 28L37 28L37 26L36 26L36 25L37 25L37 22L36 22L36 21L37 21L37 18L36 18L36 17L37 17L37 14L36 14L36 13L37 13L37 12L36 12L36 11L37 11L37 10L36 10L36 8L35 8L35 9L34 9L34 8L33 8L33 10L32 10L32 8L31 8L31 10L27 10L27 11L26 11L26 10L25 10L25 11L26 11L26 12L24 12L24 11L23 11L23 10L24 10L24 9L27 9L27 6L28 6L28 8L29 8L29 9L30 9L30 8L29 8L29 2L28 2L28 1L29 1L29 0L28 0L28 1L27 1L27 0L26 0L26 1L25 1L25 2L26 2L26 1L27 1L27 3L24 3L24 2L23 2L23 1L24 1L24 0L23 0L23 1L22 1L22 0L21 0L21 1L20 1L20 0L19 0L19 1L18 1L18 3L17 3L17 2L16 2L16 4L12 4L12 2L13 2L13 1L11 1L11 2L10 2L10 0ZM15 0L15 1L17 1L17 0ZM19 1L19 2L20 2L20 3L19 3L19 4L16 4L16 5L17 5L17 7L16 7L16 6L15 6L15 7L14 7L14 6L13 6L13 7L14 7L14 8L15 8L15 7L16 7L16 9L17 9L17 10L19 10L19 13L16 13L16 14L18 14L18 15L16 15L16 17L17 17L17 16L18 16L18 15L20 15L20 16L19 16L19 17L20 17L20 18L15 18L15 17L14 17L14 16L15 16L15 15L14 15L14 16L13 16L13 17L12 17L12 15L13 15L13 14L12 14L12 13L10 13L10 15L9 15L9 14L8 14L8 15L6 15L6 14L5 14L5 18L4 18L4 14L3 14L3 13L1 13L1 14L3 14L3 16L2 16L2 17L3 17L3 18L4 18L4 19L5 19L5 21L6 21L6 22L5 22L5 23L4 23L4 24L5 24L5 25L6 25L6 24L9 24L9 25L10 25L10 26L13 26L13 27L12 27L12 29L15 29L15 30L16 30L16 32L19 32L19 31L20 31L20 30L19 30L19 29L22 29L22 28L20 28L20 27L21 27L21 26L19 26L19 25L22 25L22 26L23 26L23 27L24 27L24 26L25 26L25 25L24 25L24 24L26 24L26 23L27 23L27 24L28 24L28 23L29 23L29 24L31 24L31 25L29 25L29 27L30 27L30 28L31 28L31 27L30 27L30 26L31 26L31 25L32 25L32 24L36 24L36 23L34 23L34 22L35 22L35 21L34 21L34 22L33 22L33 21L32 21L32 20L31 20L31 21L30 21L30 20L29 20L29 19L28 19L28 20L27 20L27 22L25 22L25 21L24 21L24 20L26 20L26 18L28 18L28 17L29 17L29 16L31 16L31 17L30 17L30 18L31 18L31 19L32 19L32 18L33 18L33 20L36 20L36 19L34 19L34 17L32 17L32 16L33 16L33 15L34 15L34 16L35 16L35 17L36 17L36 15L34 15L34 13L32 13L32 12L33 12L33 11L31 11L31 13L30 13L30 12L29 12L29 13L30 13L30 14L29 14L29 16L28 16L28 17L27 17L27 16L26 16L26 15L27 15L27 14L28 14L28 13L26 13L26 15L25 15L25 16L23 16L23 17L24 17L24 18L21 18L21 17L22 17L22 16L21 16L21 15L22 15L22 14L23 14L23 15L24 15L24 14L23 14L23 13L22 13L22 12L21 12L21 11L22 11L22 9L24 9L24 8L21 8L21 7L22 7L22 6L21 6L21 4L22 4L22 5L23 5L23 7L24 7L24 6L25 6L25 8L26 8L26 6L27 6L27 5L28 5L28 4L24 4L24 5L23 5L23 4L22 4L22 3L23 3L23 2L22 2L22 3L21 3L21 2L20 2L20 1ZM14 2L14 3L15 3L15 2ZM10 3L10 4L11 4L11 3ZM20 3L20 4L19 4L19 5L20 5L20 4L21 4L21 3ZM8 5L8 7L9 7L9 5ZM18 6L18 7L19 7L19 8L17 8L17 9L19 9L19 10L20 10L20 9L21 9L21 8L20 8L20 7L21 7L21 6L20 6L20 7L19 7L19 6ZM6 8L6 9L8 9L8 10L9 10L9 11L8 11L8 12L9 12L9 11L10 11L10 9L11 9L11 8ZM19 8L19 9L20 9L20 8ZM6 10L6 11L7 11L7 10ZM35 10L35 11L34 11L34 12L35 12L35 13L36 13L36 12L35 12L35 11L36 11L36 10ZM14 11L14 12L15 12L15 11ZM17 11L17 12L18 12L18 11ZM27 11L27 12L28 12L28 11ZM20 12L20 13L19 13L19 14L20 14L20 13L21 13L21 12ZM31 13L31 14L30 14L30 15L32 15L32 13ZM10 15L10 16L8 16L8 17L7 17L7 16L6 16L6 17L7 17L7 18L6 18L6 19L7 19L7 18L8 18L8 20L6 20L6 21L8 21L8 22L9 22L9 24L10 24L10 25L11 25L11 24L10 24L10 22L11 22L11 21L12 21L12 22L13 22L13 23L12 23L12 25L13 25L13 24L14 24L14 25L19 25L19 24L14 24L14 23L17 23L17 22L16 22L16 21L12 21L12 19L13 19L13 18L11 18L11 17L10 17L10 16L11 16L11 15ZM20 16L20 17L21 17L21 16ZM25 16L25 18L26 18L26 16ZM31 17L31 18L32 18L32 17ZM10 18L10 19L11 19L11 18ZM20 18L20 20L17 20L17 19L16 19L16 20L17 20L17 21L19 21L19 22L18 22L18 23L19 23L19 22L20 22L20 24L22 24L22 25L23 25L23 26L24 26L24 25L23 25L23 24L22 24L22 23L23 23L23 22L24 22L24 23L25 23L25 22L24 22L24 21L23 21L23 20L22 20L22 19L21 19L21 18ZM14 19L14 20L15 20L15 19ZM8 20L8 21L9 21L9 22L10 22L10 21L11 21L11 20ZM21 20L21 21L20 21L20 22L21 22L21 21L22 21L22 22L23 22L23 21L22 21L22 20ZM28 21L28 22L27 22L27 23L28 23L28 22L29 22L29 23L30 23L30 22L29 22L29 21ZM6 22L6 23L5 23L5 24L6 24L6 23L7 23L7 22ZM32 22L32 23L33 23L33 22ZM26 25L26 26L28 26L28 25ZM15 26L15 27L14 27L14 28L15 28L15 29L19 29L19 26L18 26L18 28L17 28L17 26ZM3 27L3 28L2 28L2 29L4 29L4 27ZM9 27L9 28L11 28L11 27ZM25 27L25 28L23 28L23 29L24 29L24 30L21 30L21 31L22 31L22 32L23 32L23 31L24 31L24 32L26 32L26 29L25 29L25 28L26 28L26 27ZM27 27L27 29L28 29L28 27ZM29 29L29 32L32 32L32 29ZM27 30L27 31L28 31L28 30ZM30 30L30 31L31 31L31 30ZM14 31L14 32L15 32L15 31ZM33 31L33 33L34 33L34 32L35 32L35 33L36 33L36 32L35 32L35 31ZM20 32L20 33L21 33L21 35L22 35L22 33L21 33L21 32ZM18 33L18 34L19 34L19 35L20 35L20 34L19 34L19 33ZM31 33L31 34L32 34L32 35L33 35L33 34L32 34L32 33ZM0 0L0 7L7 7L7 0ZM1 1L1 6L6 6L6 1ZM2 2L2 5L5 5L5 2ZM30 0L30 7L37 7L37 0ZM31 1L31 6L36 6L36 1ZM32 2L32 5L35 5L35 2ZM0 30L0 37L7 37L7 30ZM1 31L1 36L6 36L6 31ZM2 32L2 35L5 35L5 32Z" fill="#000000"/></g></g></svg>